Coordinates
nRows=9
nColumns=38

# SIMM Motion File Header:
name Coordinates
datacolumns 38
datarows 9
otherdata 1
range 1.91999999999999990000 1.92799999999999990000

Units are S.I. units (second, meters, Newtons, ...)
Angles are in degrees.

endheader
time	pelvis_tilt	pelvis_list	pelvis_rotation	pelvis_tx	pelvis_ty	pelvis_tz	hip_flexion_r	hip_adduction_r	hip_rotation_r	knee_angle_r	ankle_angle_r	subtalar_angle_r	mtp_angle_r	hip_flexion_l	hip_adduction_l	hip_rotation_l	knee_angle_l	ankle_angle_l	subtalar_angle_l	mtp_angle_l	lumbar_extension	lumbar_bending	lumbar_rotation	arm_flex_r	arm_add_r	arm_rot_r	elbow_flex_r	pro_sup_r	wrist_flex_r	wrist_dev_r	arm_flex_l	arm_add_l	arm_rot_l	elbow_flex_l	pro_sup_l	wrist_flex_l	wrist_dev_l
      1.91999999999999990000	     -6.81768339246306890000	     -1.27575509152674220000	      2.02319227629773260000	      0.68608747386464453000	      0.97195469510999444000	     -0.32876573939652909000	     12.54004210443673300000	      5.33651062819810830000	     -7.89246034079994100000	    -36.56919209512273000000	     17.02688274241290500000	      0.00000000000003403514	     -0.00000000000001848885	     34.37951159072071100000	     -0.17829049600481894000	     -1.54380783150879400000	    -97.79114817136702700000	     -2.76221547555514890000	     -0.00000000000001115998	      0.00000000000000024130	     -4.40194491747915160000	      5.71922174671549490000	      0.61800588339971596000	    -14.51872140325048700000	    -17.22132122870848300000	     -8.16867864785356800000	     79.77559900747073100000	     83.01437596961906700000	     -0.00000000000001745876	     -0.00000000000000591087	    -22.08128328676773600000	    -37.20165401649583000000	     22.44202702762255100000	     96.32737683933476100000	     75.71075233112175300000	     -0.00000000000000046426	      0.00000000000000260015
      1.92099999999999980000	     -6.84091467769840470000	     -1.20014920274308930000	      2.02018783804254550000	      0.68596426329130544000	      0.97219105590389054000	     -0.32878472191832392000	     12.28949513712754500000	      5.27248067660652090000	     -7.85333745322508390000	    -36.39841234455018800000	     16.91004520679675600000	      0.00000000000003457696	     -0.00000000000001865794	     34.60995260585304600000	     -0.06327752909793413200	     -1.55202879227271780000	    -97.63203407158745500000	     -2.69538598720766660000	     -0.00000000000001128479	      0.00000000000000011904	     -4.39468186471559720000	      5.62823743416369910000	      0.72360777804467380000	    -14.44712108815743100000	    -17.18674699632640600000	     -8.13389619317086420000	     79.96663927832185000000	     83.10379613632719000000	     -0.00000000000001767840	     -0.00000000000000600349	    -22.23302272290368700000	    -37.30839784416009100000	     22.46127167761800100000	     96.40729278807128800000	     75.70657222781386500000	     -0.00000000000000046262	      0.00000000000000263754
      1.92199999999999990000	     -6.86466031744966190000	     -1.12333321666982530000	      2.01709923341292670000	      0.68584767621083242000	      0.97243634857441819000	     -0.32880287879954889000	     12.03855210599459900000	      5.20739059194517310000	     -7.81287713289623650000	    -36.22572496917338500000	     16.78703696745210300000	      0.00000000000003518929	     -0.00000000000001893002	     34.83775435782720800000	      0.05209712858010293700	     -1.56178453705398870000	    -97.46553290584365900000	     -2.62962964034866160000	     -0.00000000000001141037	      0.00000000000000000350	     -4.38600389579530430000	      5.53527385736928410000	      0.82863920885849196000	    -14.37688023731932500000	    -17.15193170201534700000	     -8.09800746700866190000	     80.15760147431952000000	     83.19114431681082100000	     -0.00000000000001789789	     -0.00000000000000609827	    -22.38628694676834400000	    -37.41480504903331900000	     22.47848155639398700000	     96.48888821648236600000	     75.70471038005202000000	     -0.00000000000000046222	      0.00000000000000268399
      1.92299999999999980000	     -6.88897036133210250000	     -1.04534293820348130000	      2.01391172605620870000	      0.68573776036332890000	      0.97269032330602101000	     -0.32882019826991310000	     11.78734720238726500000	      5.14124230868093250000	     -7.77112200401812370000	    -36.05127432769967300000	     16.65781104318491400000	      0.00000000000003580476	     -0.00000000000001920605	     35.06294408824634700000	      0.16773861015779848000	     -1.57308233279389100000	    -97.29169881034619000000	     -2.56501716026182350000	     -0.00000000000001153683	     -0.00000000000000009701	     -4.37583608266480530000	      5.44037319858955740000	      0.93308217645002423000	    -14.30800424563587300000	    -17.11688262832239000000	     -8.06101445589754740000	     80.34842786533083400000	     83.27632561128493200000	     -0.00000000000001811615	     -0.00000000000000619407	    -22.54114690764885900000	    -37.52078905608684800000	     22.49356471438049400000	     96.57207868649825900000	     75.70502972173271400000	     -0.00000000000000046188	      0.00000000000000271193
      1.92399999999999990000	     -6.91389137613440410000	     -0.96621270063532283000	      2.01060947639948660000	      0.68563455885776992000	      0.97295273430618889000	     -0.32883667090672708000	     11.53601230878257800000	      5.07403540879764670000	     -7.72811658253200660000	    -35.87520646857135600000	     16.52232246142372300000	      0.00000000000003642145	     -0.00000000000001953358	     35.28554555299619000000	      0.28355581630724735000	     -1.58592917576269570000	    -97.11058582966711600000	     -2.50161588968730840000	     -0.00000000000001166271	     -0.00000000000000018734	     -4.36410853577942070000	      5.34357689436293890000	      1.03692154002803380000	    -14.24049921818572400000	    -17.08160623091880800000	     -8.02292178985707240000	     80.53906385493618800000	     83.35925381458845600000	     -0.00000000000001833372	     -0.00000000000000628909	    -22.69766988491231500000	    -37.62626382347615800000	     22.50643474639315400000	     96.65677982051998600000	     75.70738467815495200000	     -0.00000000000000046197	      0.00000000000000273777
      1.92499999999999980000	     -6.93946619314310810000	     -0.88597548719506058000	      2.00717572128313380000	      0.68553810990234709000	      0.97322334032796098000	     -0.32885228949576029000	     11.28467655999284200000	      5.00576742910704110000	     -7.68390724217263800000	    -35.69766867878949100000	     16.38052842316751200000	      0.00000000000003703493	     -0.00000000000001990158	     35.50557883611482900000	      0.39946137491290079000	     -1.60033163513222850000	    -96.92224791384785500000	     -2.43948951118194610000	     -0.00000000000001179127	     -0.00000000000000027536	     -4.35075676805261220000	      5.24492572511814180000	      1.14014490021513230000	    -14.17437189026632700000	    -17.04610817244157800000	     -7.98373669202620380000	     80.72945800031519100000	     83.43985113157432900000	     -0.00000000000001854940	     -0.00000000000000638437	    -22.85591923788902200000	    -37.73114400461923900000	     22.51701072454405800000	     96.74290746188692900000	     75.71162221599239200000	     -0.00000000000000046201	      0.00000000000000275694
      1.92599999999999990000	     -6.96573365590508950000	     -0.80466305216411127000	      2.00359295417478790000	      0.68544844653008341000	      0.97350190518259461000	     -0.32886704889292162000	     11.03346590345527600000	      4.93643416959597660000	     -7.63854218042671910000	    -35.51880903608152800000	     16.23238848942097300000	      0.00000000000003769227	     -0.00000000000002026805	     35.72306016313545000000	      0.51537160042962071000	     -1.61629569559540660000	    -96.72673891669448700000	     -2.37869776962640560000	     -0.00000000000001191730	     -0.00000000000000036636	     -4.33572206030948060000	      5.14445990568718250000	      1.24274248139555190000	    -14.10962954728880800000	    -17.01039335707648400000	     -7.94346892824447970000	     80.91956203104591300000	     83.51804789240162600000	     -0.00000000000001876497	     -0.00000000000000647780	    -23.01595415262178100000	    -37.83534511133770200000	     22.52521713069408100000	     96.83037783547877100000	     75.71758289330047400000	     -0.00000000000000046139	      0.00000000000000275408
      1.92699999999999980000	     -6.99272836828055680000	     -0.72230604159027223000	      1.99984310591159620000	      0.68536559632102423000	      0.97378819823856555000	     -0.32888094588757932000	     10.78250265847471900000	      4.86603000232541570000	     -7.59207138537897030000	    -35.33877596227314700000	     16.07786474283807400000	      0.00000000000003838712	     -0.00000000000002070809	     35.93800171384462100000	      0.63120645296082711000	     -1.63382659897645070000	    -96.52411259501582200000	     -2.31929619482698120000	     -0.00000000000001203976	     -0.00000000000000043008	     -4.31895182821961670000	      5.04221917682899170000	      1.34470701361479380000	    -14.04627994461018200000	    -16.97446596591040400000	     -7.90213075660573770000	     81.10933086675906600000	     83.59378226782558800000	     -0.00000000000001898118	     -0.00000000000000657044	    -23.17782938561369500000	    -37.93878367774960500000	     22.53098378855315100000	     96.91910770832096500000	     75.72510190953296700000	     -0.00000000000000046013	      0.00000000000000273067
      1.92799999999999990000	     -7.02048044282602750000	     -0.63893411361353514000	      1.99590772589419840000	      0.68528958112257909000	      0.97408199491034653000	     -0.32889397906729712000	     10.53190507467925300000	      4.79454818102250170000	     -7.54454660276395030000	    -35.15771777895708500000	     15.91692194804477700000	      0.00000000000003909856	     -0.00000000000002118873	     36.15041143458205400000	      0.74688949710142916000	     -1.65292868502839820000	    -96.31442260874507600000	     -2.26133582420660280000	     -0.00000000000001216211	     -0.00000000000000049043	     -4.30039999053069530000	      4.93824289755109720000	      1.44603361408281920000	    -13.98433122736113900000	    -16.93832949299944700000	     -7.85973687703643890000	     81.29872263382436900000	     83.66699998449873000000	     -0.00000000000001919783	     -0.00000000000000666251	    -23.34159500481689200000	    -38.04137742506488000000	     22.53424579540836300000	     97.00901455026775000000	     75.73401015554161100000	     -0.00000000000000045743	      0.00000000000000269200
